<?xml version="1.0" standalone="no"?>
<!DOCTYPE svg PUBLIC "-//W3C//DTD SVG 20010904//EN"
 "http://www.w3.org/TR/2001/REC-SVG-20010904/DTD/svg10.dtd">
<svg version="1.0" xmlns="http://www.w3.org/2000/svg"
 width="2133.000000pt" height="2133.000000pt" viewBox="0 0 2133.000000 2133.000000"
 preserveAspectRatio="xMidYMid meet">
<metadata>
Created by potrace 1.11, written by Peter Selinger 2001-2013
</metadata>
<g transform="translate(0.000000,2133.000000) scale(0.100000,-0.100000)"
fill="#000000" stroke="none">
<path d="M10638 18933 c28 -2 76 -2 105 0 28 2 5 3 -53 3 -58 0 -81 -1 -52 -3z"/>
<path d="M10848 18933 c28 -2 76 -2 105 0 28 2 5 3 -53 3 -58 0 -81 -1 -52 -3z"/>
<path d="M10343 18923 c9 -2 23 -2 30 0 6 3 -1 5 -18 5 -16 0 -22 -2 -12 -5z"/>
<path d="M11213 18923 c9 -2 23 -2 30 0 6 3 -1 5 -18 5 -16 0 -22 -2 -12 -5z"/>
<path d="M10178 18913 c6 -2 18 -2 25 0 6 3 1 5 -13 5 -14 0 -19 -2 -12 -5z"/>
<path d="M11378 18913 c6 -2 18 -2 25 0 6 3 1 5 -13 5 -14 0 -19 -2 -12 -5z"/>
<path d="M10058 18903 c7 -3 16 -2 19 1 4 3 -2 6 -13 5 -11 0 -14 -3 -6 -6z"/>
<path d="M11508 18903 c7 -3 16 -2 19 1 4 3 -2 6 -13 5 -11 0 -14 -3 -6 -6z"/>
<path d="M11618 18893 c7 -3 16 -2 19 1 4 3 -2 6 -13 5 -11 0 -14 -3 -6 -6z"/>
<path d="M10345 18463 c-1456 -94 -2758 -531 -3945 -1327 -726 -486 -1377
-1101 -1912 -1806 -780 -1028 -1305 -2239 -1518 -3505 -80 -472 -110 -847
-110 -1360 0 -424 13 -643 61 -1025 245 -1967 1224 -3789 2729 -5079 1861
-1596 4322 -2237 6720 -1750 1347 274 2577 888 3645 1820 167 145 558 536 705
704 764 875 1320 1869 1655 2960 456 1485 470 3105 40 4600 -529 1837 -1689
3421 -3275 4470 -299 197 -518 324 -835 483 -947 473 -1942 740 -3020 812
-135 9 -816 11 -940 3z m1284 -777 c121 -31 315 -114 407 -175 108 -72 259
-207 316 -281 51 -68 96 -165 137 -292 79 -248 63 -507 -44 -724 -102 -209
-258 -296 -472 -265 -109 16 -187 56 -261 135 -92 99 -125 211 -102 351 27
168 85 233 320 355 185 96 223 128 246 209 15 50 15 62 1 133 -26 134 -62 186
-186 270 -371 252 -876 275 -1306 61 -510 -255 -710 -672 -583 -1218 74 -319
263 -686 516 -1005 144 -180 380 -455 494 -576 158 -167 220 -240 319 -379
498 -693 748 -1276 815 -1900 10 -95 14 -214 12 -369 l-3 -230 75 -22 c190
-58 529 -272 633 -400 59 -73 126 -203 163 -314 25 -78 28 -101 32 -279 5
-212 -4 -297 -43 -412 -93 -273 -278 -462 -681 -696 -84 -48 -150 -91 -148
-94 2 -4 36 -10 76 -14 302 -29 705 -133 970 -250 556 -245 986 -716 1233
-1350 331 -853 196 -1898 -353 -2725 -327 -492 -761 -859 -1357 -1145 -436
-210 -806 -310 -1280 -345 -1018 -75 -2120 276 -2930 934 -231 188 -507 480
-672 711 -347 487 -503 941 -503 1465 0 353 68 658 210 945 209 421 562 701
1000 791 114 24 311 24 455 0 234 -39 363 -102 511 -251 78 -78 99 -106 137
-186 67 -138 81 -200 81 -354 0 -123 -2 -135 -36 -233 -72 -206 -210 -383
-358 -455 -41 -21 -102 -42 -135 -48 -54 -9 -72 -7 -178 20 -229 58 -256 69
-317 131 -31 30 -72 86 -92 125 -99 191 -91 330 32 576 57 112 78 236 47 281
-30 45 -61 71 -116 97 -45 21 -71 26 -131 26 -89 0 -135 -20 -258 -112 -300
-226 -494 -570 -568 -1008 -26 -152 -24 -461 4 -625 90 -528 327 -949 753
-1336 345 -314 628 -481 1204 -709 176 -70 288 -104 441 -135 355 -71 1049
-111 1324 -76 421 54 759 156 1166 351 289 139 538 379 789 760 268 407 399
731 477 1183 51 292 11 810 -92 1197 -150 567 -438 1000 -850 1277 -191 129
-456 243 -690 297 -187 44 -295 54 -565 55 -250 1 -262 2 -313 25 -60 27 -76
49 -63 83 17 45 41 56 141 61 255 15 353 38 518 121 156 79 377 320 468 511
54 114 93 271 101 400 6 102 -17 286 -53 430 -21 83 -94 228 -149 298 -41 52
-155 147 -176 147 -8 0 -16 -26 -79 -245 -124 -434 -198 -579 -454 -900 -213
-266 -422 -460 -693 -643 -34 -23 -64 -46 -67 -50 -3 -5 -7 -287 -10 -628 -8
-999 -26 -2257 -37 -2564 -5 -157 -14 -432 -19 -612 -10 -351 -15 -387 -63
-409 -20 -9 -37 -6 -98 21 -102 45 -346 168 -352 177 -5 8 18 756 43 1398 27
709 49 2357 32 2383 -8 11 -46 7 -208 -22 -283 -50 -392 -65 -565 -76 -497
-34 -1042 90 -1534 349 -448 235 -850 581 -1167 1005 -102 137 -148 219 -263
464 -167 360 -246 654 -261 972 -15 342 40 734 141 1005 44 117 171 385 273
572 118 217 302 462 469 624 294 285 629 497 958 607 249 83 619 94 882 26
205 -53 364 -143 508 -288 182 -184 231 -365 165 -621 -49 -193 -130 -298
-302 -393 -86 -48 -104 -54 -189 -63 -176 -20 -310 9 -463 99 -235 140 -335
351 -279 590 22 94 14 119 -48 150 -105 52 -267 51 -470 -4 -201 -54 -455
-177 -599 -291 -134 -106 -337 -354 -419 -513 -24 -47 -57 -104 -73 -128 -46
-67 -153 -296 -193 -411 -44 -130 -87 -297 -117 -461 -20 -110 -23 -157 -23
-390 0 -234 3 -280 24 -395 73 -409 221 -718 514 -1077 485 -594 1074 -949
1777 -1069 121 -21 166 -23 445 -23 273 0 328 2 455 22 196 31 530 99 545 112
22 18 36 1853 15 1945 -5 22 -10 55 -10 72 0 60 3 60 435 67 215 3 456 9 538
12 l147 7 -6 36 c-72 424 -240 822 -556 1314 -92 143 -161 244 -469 684 -418
596 -572 879 -722 1323 -78 233 -101 317 -129 493 -26 161 -27 352 -4 546 20
162 48 249 128 401 113 215 190 321 353 489 242 249 579 420 980 497 99 19
466 12 554 -10z"/>
<path d="M10936 11083 c-3 -329 -7 -675 -9 -770 -2 -199 -9 -194 100 -80 81
85 152 200 217 349 79 183 204 511 225 590 28 107 46 262 46 393 l0 110 -286
3 -287 2 -6 -597z"/>
<path d="M16090 17036 c0 -2 8 -10 18 -17 15 -13 16 -12 3 4 -13 16 -21 21
-21 13z"/>
<path d="M16150 16986 c0 -2 8 -10 18 -17 15 -13 16 -12 3 4 -13 16 -21 21
-21 13z"/>
<path d="M16220 16926 c0 -2 8 -10 18 -17 15 -13 16 -12 3 4 -13 16 -21 21
-21 13z"/>
<path d="M5319 16893 c-13 -16 -12 -17 4 -4 9 7 17 15 17 17 0 8 -8 3 -21 -13z"/>
<path d="M16305 16850 c10 -11 20 -20 23 -20 3 0 -3 9 -13 20 -10 11 -20 20
-23 20 -3 0 3 -9 13 -20z"/>
<path d="M5244 16828 l-19 -23 23 19 c21 18 27 26 19 26 -2 0 -12 -10 -23 -22z"/>
<path d="M16400 16765 c13 -14 26 -25 28 -25 3 0 -5 11 -18 25 -13 14 -26 25
-28 25 -3 0 5 -11 18 -25z"/>
<path d="M5139 16733 l-24 -28 28 24 c15 14 27 26 27 28 0 8 -8 1 -31 -24z"/>
<path d="M16540 16638 c24 -27 45 -48 47 -48 8 0 0 9 -44 50 l-48 45 45 -47z"/>
<path d="M4880 16483 l-145 -148 148 145 c81 80 147 146 147 147 0 8 -16 -7
-150 -144z"/>
<path d="M16850 16328 c41 -45 50 -53 50 -45 0 2 -21 23 -47 47 l-48 45 45
-47z"/>
<path d="M4624 16218 l-29 -33 33 29 c17 17 32 31 32 33 0 8 -8 1 -36 -29z"/>
<path d="M16985 16180 c10 -11 20 -20 23 -20 3 0 -3 9 -13 20 -10 11 -20 20
-23 20 -3 0 3 -9 13 -20z"/>
<path d="M4529 16113 c-13 -16 -12 -17 4 -4 16 13 21 21 13 21 -2 0 -10 -8
-17 -17z"/>
<path d="M17060 16096 c0 -2 8 -10 18 -17 15 -13 16 -12 3 4 -13 16 -21 21
-21 13z"/>
<path d="M4459 16033 c-13 -16 -12 -17 4 -4 9 7 17 15 17 17 0 8 -8 3 -21 -13z"/>
<path d="M4399 15963 c-13 -16 -12 -17 4 -4 9 7 17 15 17 17 0 8 -8 3 -21 -13z"/>
<path d="M17180 15956 c0 -2 8 -10 18 -17 15 -13 16 -12 3 4 -13 16 -21 21
-21 13z"/>
<path d="M19131 11434 c0 -11 3 -14 6 -6 3 7 2 16 -1 19 -3 4 -6 -2 -5 -13z"/>
<path d="M2441 11404 c0 -11 3 -14 6 -6 3 7 2 16 -1 19 -3 4 -6 -2 -5 -13z"/>
<path d="M19151 11234 c0 -11 3 -14 6 -6 3 7 2 16 -1 19 -3 4 -6 -2 -5 -13z"/>
<path d="M2421 11194 c0 -11 3 -14 6 -6 3 7 2 16 -1 19 -3 4 -6 -2 -5 -13z"/>
<path d="M19161 11114 c0 -11 3 -14 6 -6 3 7 2 16 -1 19 -3 4 -6 -2 -5 -13z"/>
<path d="M2412 11070 c0 -14 2 -19 5 -12 2 6 2 18 0 25 -3 6 -5 1 -5 -13z"/>
<path d="M19172 10965 c0 -16 2 -22 5 -12 2 9 2 23 0 30 -3 6 -5 -1 -5 -18z"/>
<path d="M2402 10905 c0 -16 2 -22 5 -12 2 9 2 23 0 30 -3 6 -5 -1 -5 -18z"/>
<path d="M19183 10740 c0 -25 2 -35 4 -22 2 12 2 32 0 45 -2 12 -4 2 -4 -23z"/>
<path d="M2394 10570 c0 -58 1 -81 3 -52 2 28 2 76 0 105 -2 28 -3 5 -3 -53z"/>
<path d="M2394 10355 c0 -60 1 -84 3 -52 2 32 2 81 0 110 -2 29 -3 3 -3 -58z"/>
<path d="M19183 10190 c0 -25 2 -35 4 -22 2 12 2 32 0 45 -2 12 -4 2 -4 -23z"/>
<path d="M2402 10025 c0 -16 2 -22 5 -12 2 9 2 23 0 30 -3 6 -5 -1 -5 -18z"/>
<path d="M19172 9960 c0 -14 2 -19 5 -12 2 6 2 18 0 25 -3 6 -5 1 -5 -13z"/>
<path d="M2411 9854 c0 -11 3 -14 6 -6 3 7 2 16 -1 19 -3 4 -6 -2 -5 -13z"/>
<path d="M19161 9814 c0 -11 3 -14 6 -6 3 7 2 16 -1 19 -3 4 -6 -2 -5 -13z"/>
<path d="M2421 9724 c0 -11 3 -14 6 -6 3 7 2 16 -1 19 -3 4 -6 -2 -5 -13z"/>
<path d="M19151 9694 c0 -11 3 -14 6 -6 3 7 2 16 -1 19 -3 4 -6 -2 -5 -13z"/>
<path d="M19141 9584 c0 -11 3 -14 6 -6 3 7 2 16 -1 19 -3 4 -6 -2 -5 -13z"/>
<path d="M2451 9434 c0 -11 3 -14 6 -6 3 7 2 16 -1 19 -3 4 -6 -2 -5 -13z"/>
<path d="M17209 5003 c-13 -16 -12 -17 4 -4 9 7 17 15 17 17 0 8 -8 3 -21 -13z"/>
<path d="M4370 4996 c0 -2 8 -10 18 -17 15 -13 16 -12 3 4 -13 16 -21 21 -21
13z"/>
<path d="M4430 4926 c0 -2 8 -10 18 -17 15 -13 16 -12 3 4 -13 16 -21 21 -21
13z"/>
<path d="M17089 4863 c-13 -16 -12 -17 4 -4 16 13 21 21 13 21 -2 0 -10 -8
-17 -17z"/>
<path d="M4505 4840 c10 -11 20 -20 23 -20 3 0 -3 9 -13 20 -10 11 -20 20 -23
20 -3 0 3 -9 13 -20z"/>
<path d="M17014 4778 l-19 -23 23 19 c21 18 27 26 19 26 -2 0 -12 -10 -23 -22z"/>
<path d="M4590 4745 c13 -14 26 -25 28 -25 3 0 -5 11 -18 25 -13 14 -26 25
-28 25 -3 0 5 -11 18 -25z"/>
<path d="M16904 4658 l-29 -33 33 29 c30 28 37 36 29 36 -2 0 -16 -15 -33 -32z"/>
<path d="M4725 4600 c27 -27 51 -50 54 -50 3 0 -17 23 -44 50 -27 28 -51 50
-54 50 -3 0 17 -22 44 -50z"/>
<path d="M5030 4298 c41 -45 50 -53 50 -45 0 2 -21 23 -47 47 l-48 45 45 -47z"/>
<path d="M16484 4238 l-29 -33 33 29 c30 28 37 36 29 36 -2 0 -16 -15 -33 -32z"/>
<path d="M5175 4160 c10 -11 20 -20 23 -20 3 0 -3 9 -13 20 -10 11 -20 20 -23
20 -3 0 3 -9 13 -20z"/>
<path d="M16364 4128 l-19 -23 23 19 c21 18 27 26 19 26 -2 0 -12 -10 -23 -22z"/>
<path d="M5260 4086 c0 -2 8 -10 18 -17 15 -13 16 -12 3 4 -13 16 -21 21 -21
13z"/>
<path d="M16279 4053 c-13 -16 -12 -17 4 -4 16 13 21 21 13 21 -2 0 -10 -8
-17 -17z"/>
<path d="M5340 4016 c0 -2 8 -10 18 -17 15 -13 16 -12 3 4 -13 16 -21 21 -21
13z"/>
<path d="M16139 3933 c-13 -16 -12 -17 4 -4 9 7 17 15 17 17 0 8 -8 3 -21 -13z"/>
<path d="M9828 2043 c7 -3 16 -2 19 1 4 3 -2 6 -13 5 -11 0 -14 -3 -6 -6z"/>
<path d="M9918 2033 c7 -3 16 -2 19 1 4 3 -2 6 -13 5 -11 0 -14 -3 -6 -6z"/>
<path d="M11548 2023 c7 -3 16 -2 19 1 4 3 -2 6 -13 5 -11 0 -14 -3 -6 -6z"/>
<path d="M10138 2013 c6 -2 18 -2 25 0 6 3 1 5 -13 5 -14 0 -19 -2 -12 -5z"/>
<path d="M11428 2013 c7 -3 16 -2 19 1 4 3 -2 6 -13 5 -11 0 -14 -3 -6 -6z"/>
<path d="M10288 2003 c6 -2 18 -2 25 0 6 3 1 5 -13 5 -14 0 -19 -2 -12 -5z"/>
<path d="M11278 2003 c6 -2 18 -2 25 0 6 3 1 5 -13 5 -14 0 -19 -2 -12 -5z"/>
<path d="M10498 1993 c12 -2 32 -2 45 0 12 2 2 4 -23 4 -25 0 -35 -2 -22 -4z"/>
<path d="M11048 1993 c12 -2 30 -2 40 0 9 3 -1 5 -23 4 -22 0 -30 -2 -17 -4z"/>
</g>
</svg>
